<svg xmlns="http://www.w3.org/2000/svg" width="27" height="27" viewBox="0 0 27 27">
  <path id="Icon_simple-instagram" data-name="Icon simple-instagram" d="M13.5,0C9.832,0,9.375.017,7.935.081A9.955,9.955,0,0,0,4.657.709,6.611,6.611,0,0,0,2.266,2.266,6.587,6.587,0,0,0,.709,4.658,9.925,9.925,0,0,0,.081,7.935C.013,9.375,0,9.832,0,13.5s.017,4.125.081,5.565a9.961,9.961,0,0,0,.628,3.277,6.621,6.621,0,0,0,1.557,2.392,6.6,6.6,0,0,0,2.392,1.557,9.967,9.967,0,0,0,3.277.628c1.44.068,1.9.081,5.565.081s4.125-.017,5.565-.081a9.99,9.99,0,0,0,3.277-.628,6.9,6.9,0,0,0,3.949-3.949,9.961,9.961,0,0,0,.628-3.277c.068-1.44.081-1.9.081-5.565s-.017-4.125-.081-5.565a9.984,9.984,0,0,0-.628-3.277,6.626,6.626,0,0,0-1.557-2.392A6.578,6.578,0,0,0,22.342.709,9.932,9.932,0,0,0,19.065.081C17.625.013,17.167,0,13.5,0Zm0,2.43c3.6,0,4.033.018,5.456.08a7.438,7.438,0,0,1,2.505.467,4.443,4.443,0,0,1,2.563,2.562,7.454,7.454,0,0,1,.465,2.505c.064,1.424.079,1.852.079,5.456s-.017,4.033-.083,5.456a7.6,7.6,0,0,1-.474,2.505A4.286,4.286,0,0,1,23,23.016a4.212,4.212,0,0,1-1.552,1.008,7.508,7.508,0,0,1-2.514.465c-1.433.064-1.855.079-5.466.079S9.432,24.551,8,24.484a7.655,7.655,0,0,1-2.515-.474A4.181,4.181,0,0,1,3.933,23,4.1,4.1,0,0,1,2.92,21.447a7.661,7.661,0,0,1-.472-2.514c-.051-1.418-.069-1.855-.069-5.449s.018-4.034.069-5.469A7.653,7.653,0,0,1,2.92,5.5,4,4,0,0,1,3.933,3.948a3.993,3.993,0,0,1,1.551-1.01,7.472,7.472,0,0,1,2.5-.474C9.417,2.413,9.839,2.4,13.449,2.4l.051.034Zm0,4.138A6.932,6.932,0,1,0,20.432,13.5,6.932,6.932,0,0,0,13.5,6.568ZM13.5,18A4.5,4.5,0,1,1,18,13.5,4.5,4.5,0,0,1,13.5,18ZM22.327,6.294a1.62,1.62,0,1,1-1.62-1.619A1.621,1.621,0,0,1,22.327,6.294Z" fill="#fff"/>
</svg>
