<svg xmlns="http://www.w3.org/2000/svg" width="26.5" height="26.5" viewBox="0 0 26.5 26.5">
  <path id="Icon_awesome-facebook-square" data-name="Icon awesome-facebook-square" d="M23.661,2.25H2.839A2.839,2.839,0,0,0,0,5.089V25.911A2.839,2.839,0,0,0,2.839,28.75h8.119V19.741H7.231V15.5h3.727V12.268c0-3.676,2.189-5.707,5.541-5.707a22.576,22.576,0,0,1,3.284.286v3.608h-1.85a2.12,2.12,0,0,0-2.391,2.291V15.5h4.068l-.651,4.241H15.542V28.75h8.119A2.839,2.839,0,0,0,26.5,25.911V5.089A2.839,2.839,0,0,0,23.661,2.25Z" transform="translate(0 -2.25)" fill="#fff"/>
</svg>
