<svg xmlns="http://www.w3.org/2000/svg" width="26.88" height="26.208" viewBox="0 0 26.88 26.208">
  <path id="Icon_awesome-github" data-name="Icon awesome-github" d="M8.991,21.665c0,.108-.125.2-.282.2-.179.016-.3-.07-.3-.2,0-.108.125-.2.282-.2C8.85,21.454,8.991,21.541,8.991,21.665Zm-1.685-.244c-.038.108.07.233.233.266a.254.254,0,0,0,.336-.108c.033-.108-.07-.233-.233-.282A.278.278,0,0,0,7.305,21.422Zm2.4-.092c-.157.038-.266.141-.249.266.016.108.157.179.32.141s.266-.141.249-.249S9.858,21.313,9.7,21.329ZM13.267.563A13,13,0,0,0,0,13.786,13.587,13.587,0,0,0,9.186,26.749c.694.125.938-.3.938-.656,0-.336-.016-2.189-.016-3.327,0,0-3.794.813-4.59-1.615,0,0-.618-1.577-1.507-1.983,0,0-1.241-.851.087-.835a2.861,2.861,0,0,1,2.092,1.4,2.865,2.865,0,0,0,3.951,1.133,3.012,3.012,0,0,1,.867-1.826c-3.029-.336-6.086-.775-6.086-5.988A4.107,4.107,0,0,1,6.2,9.857a5.12,5.12,0,0,1,.141-3.68C7.473,5.825,10.08,7.64,10.08,7.64a12.8,12.8,0,0,1,6.807,0s2.607-1.821,3.739-1.463a5.118,5.118,0,0,1,.141,3.68,4.213,4.213,0,0,1,1.4,3.192c0,5.23-3.192,5.647-6.221,5.988a3.2,3.2,0,0,1,.921,2.515c0,1.826-.016,4.086-.016,4.531,0,.352.249.78.938.656A13.462,13.462,0,0,0,26.88,13.786,13.288,13.288,0,0,0,13.267.563Zm-8,18.691c-.07.054-.054.179.038.282.087.087.211.125.282.054.07-.054.054-.179-.038-.282C5.463,19.221,5.338,19.183,5.268,19.254Zm-.585-.439c-.038.07.016.157.125.211a.161.161,0,0,0,.233-.038c.038-.07-.016-.157-.125-.211C4.807,18.744,4.72,18.761,4.682,18.815Zm1.756,1.929c-.087.07-.054.233.07.336.125.125.282.141.352.054.07-.07.038-.233-.07-.336C6.671,20.674,6.509,20.657,6.438,20.744Zm-.618-.8c-.087.054-.087.2,0,.32s.233.179.3.125a.247.247,0,0,0,0-.336C6.048,19.931,5.907,19.877,5.82,19.948Z" transform="translate(0 -0.563)" fill="#fff"/>
</svg>
